<svg xmlns="http://www.w3.org/2000/svg" viewBox="0 0 512 512">
  <defs>
    <linearGradient id="aulaGradBlue" x1="0%" y1="0%" x2="100%" y2="100%">
      <stop offset="0%" stop-color="#1E3A8A" />
      <stop offset="100%" stop-color="#3B82F6" />
    </linearGradient>
    <linearGradient id="aulaGradAccent" x1="0%" y1="100%" x2="100%" y2="0%">
      <stop offset="0%" stop-color="#059669" />
      <stop offset="100%" stop-color="#10B981" />
    </linearGradient>
    <linearGradient id="aulaGradGold" x1="0%" y1="0%" x2="100%" y2="100%">
      <stop offset="0%" stop-color="#F59E0B" />
      <stop offset="100%" stop-color="#FBBF24" />
    </linearGradient>
    <filter id="dropShadow" x="-10%" y="-10%" width="120%" height="120%">
      <feDropShadow dx="0" dy="8" stdDeviation="6" flood-color="#0F172A" flood-opacity="0.15" />
    </filter>
  </defs>
  <rect width="512" height="512" rx="110" fill="url(#aulaGradBlue)" />
  <g filter="url(#dropShadow)">
    <path d="M128,340C180,330 230,345 256,360V220C220,205 170,195 128,210Z" fill="#fff" opacity=".95" />
    <path d="M384,340C332,330 282,345 256,360V220C292,205 342,195 384,210Z" fill="#e2e8f0" />
    <path d="M256,360V220C240,212 200,205 140,216V330C190,320 230,332 256,360Z" fill="url(#aulaGradAccent)" opacity=".3" />
    <polygon points="256,110 390,175 256,235 122,175" fill="url(#aulaGradAccent)" />
    <polygon points="256,110 390,175 256,188 122,175" fill="#fff" opacity=".25" />
    <path d="M350,195V250C350,258 344,264 336,264C328,264 322,258 322,250" fill="none" stroke="url(#aulaGradGold)" stroke-linecap="round" stroke-width="6" />
    <circle cx="350" cy="195" r="7" fill="url(#aulaGradGold)" />
    <polygon points="336,260 344,285 328,285" fill="url(#aulaGradGold)" />
    <path d="M256,135C240,160 240,185 256,200C272,185 272,160 256,135Z" fill="url(#aulaGradGold)" />
  </g>
</svg>
